<?xml version="1.0" encoding="utf-8"?>
<!-- Generator: Adobe Illustrator 18.1.1, SVG Export Plug-In . SVG Version: 6.00 Build 0)  -->
<svg version="1.1" id="Layer_1" xmlns="http://www.w3.org/2000/svg" xmlns:xlink="http://www.w3.org/1999/xlink" x="0px" y="0px"
	 viewBox="0 0 93.5 103.8" enable-background="new 0 0 93.5 103.8" xml:space="preserve">
<polygon fill="#FFFFFF" points="46.7,10.2 7.3,31.8 7.3,72.9 44.3,94.7 85.1,71.9 85,31.8 "/>
<path fill="#FFFFFF" d="M92,26.2L48.3,0.9L46.8,0l-1.5,0.9L1.5,26.1L0,27l0,1.7l0,20l0,3L0,75l0,1.7l1.5,0.9l43.7,25.3l1.5,0.9
	l1.5-0.9L92,77.7l1.5-0.9l0-1.7l0-46.4l0-1.7L92,26.2z M15.2,35.3l31.6-18.2l31.6,18.3l0,33.2L46.7,86.7L15.2,68.5l0-19.2v0
	L15.2,35.3z M46.8,13.6L12.2,33.5l0,15.7h0h0l0,21l0-21l0,0l0,0h0l0-15.7L46.8,13.6l34.6,20L46.8,13.6z M46.7,100.3L3,75L46.7,100.3
	l43.8-25.2L46.7,100.3z"/>
<g>
	<g>
		<path fill="#FFFFFF" d="M30.4,72.7c-0.6,0.5-1.2,1.1-1.9,1.6c-1.8,1.4-3.6,2.9-5.4,4.3c-0.5,0.4-0.5,0.4,0.1,0.7
			c0.5,0.3,0.9,0.5,1.4,0.8c0.7,0.4,0.7,0.4,1.2-0.2c1.3-1.4,2.5-2.9,3.7-4.4c2.1-2.5,4.2-5,6.2-7.5c0.1-0.1,0.2-0.4,0.2-0.6
			c0-0.1-0.3-0.2-0.4-0.2c-1.7-0.2-3.3-0.5-5-0.7c-3.9-0.6-7.8-1.1-11.7-1.7c-2.8-0.4-5.5-0.9-8.2-1.4c-0.4-0.1-0.6,0-0.6,0.4
			c0,1.3,0,2.5,0,3.8c0,0.4,0.2,0.5,0.5,0.5c2.1,0.1,4.2,0.3,6.3,0.4c4.9,0.2,9.7,0.4,14.6,0.6c0.9,0,1.7,0.1,2.7,0.1
			c-0.4,0.6-0.9,1-1.6,1.1c-1,0.1-2,0.2-2.9,0.3c-5.3,0.4-10.6,0.7-15.9,1.1c-0.8,0.1-1.6,0.1-2.4,0.2c0.1,0.2,0.2,0.4,0.4,0.4
			c1.2,0.7,2.4,1.4,3.5,2.1c0.5,0.3,0.9,0.4,1.5,0.3c2-0.4,4-0.9,6-1.3c3-0.6,6-1.3,9-2c0,0,0,0,0,0.1c-0.4,0.3-0.7,0.5-1.1,0.8
			c0-0.1,0-0.3,0-0.4c-4,1.5-8,3-12.1,4.5c0.2,0.2,0.3,0.3,0.5,0.4c0.4,0.3,0.8,0.5,1.2,0.7c0.4,0.3,0.7,0.2,1.1,0
			c1.4-0.8,2.8-1.6,4.2-2.3C27.2,74.4,28.8,73.5,30.4,72.7z M40.9,47.7c-0.3-0.1-0.5-0.2-0.8-0.3c-2-1-3.9-1.9-5.8-2.9
			c-4.5-2.3-8.9-5-12.7-8.3c-2.1-1.9-4.1-3.9-5.2-6.5c-0.2-0.4-0.5-0.3-0.7-0.1c-1.5,0.9-3.1,1.8-4.6,2.7c-0.5,0.3-0.5,0.4-0.2,0.8
			c1.2,1.3,2.3,2.7,3.6,3.9c3.4,3.1,7.2,5.6,11.2,7.9c4.8,2.8,9.9,5.1,15,7.3c0.5,0.2,0.7,0.5,0.7,1.1c0.1,4.4-0.6,8.8-1,13.2
			c-0.3,2.8-0.5,5.6-0.4,8.4c0.2,5.4,1.7,10.5,4.5,15.2c0.3,0.6,0.7,0.8,1.4,0.8c2.1,0,4.3-0.1,6.4,0c1.4,0.1,2.4-0.8,3.6-1.4
			c-0.4-0.4-0.8-0.8-1.2-1.1c-3.3-2.9-5.9-6.3-7.8-10.3c-2.3-4.7-3.1-9.8-3.5-15c-0.3-3.9-0.5-7.8-1-11.7c-0.5-4.3-1.9-8.4-4-12.2
			c-0.3-0.4-0.7-0.8-1.1-1.1c-0.7-0.5-1.5-0.9-2.2-1.3c-2.2-1.4-4.4-2.8-6.1-4.7c-0.3-0.4-0.6-0.8-0.8-1.3c-0.2-0.5,0.1-0.8,0.6-0.7
			c1,0.2,1.8,0.6,2.6,1.1c2.8,1.9,5.1,4.3,7,7.1c2.8,4.1,4.5,8.6,5.5,13.5c0.9,4,1.6,7.9,2.5,11.9c2.2,9.3,7.4,16.5,15.4,21.8
			c0.5,0.3,0.9,0.3,1.4,0c1.5-0.9,3-1.8,4.5-2.6c0.2-0.1,0.3-0.2,0.5-0.4c-0.7-0.3-1.2-0.6-1.8-0.9c-5.6-2.9-10.1-6.9-13.5-12.3
			c-2.3-3.7-3.8-7.6-5-11.8c-1-3.6-2-7.2-3.2-10.7c-1.8-5.3-4.7-10.1-8.9-14c-2.3-2.1-4.8-4-7.8-5.1c-1.3-0.5-2.6-0.9-4-0.7
			c-1.7,0.2-2.4,1.3-1.9,2.9c0,0.1,0.1,0.2,0.1,0.4c0.6,1.5,1.6,2.6,2.6,3.7c2.4,2.4,5.1,4.3,8.1,6c2.1,1.2,4.2,2.3,6.3,3.5
			c0.5,0.3,0.8,0.6,0.9,1.2c0.2,0.9,0.4,1.8,0.6,2.7C40.9,47.2,40.9,47.4,40.9,47.7z M56.7,56.5C56.7,56.5,56.7,56.5,56.7,56.5
			c-0.1-0.1-0.2-0.2-0.2-0.3c-1-3.6-1.3-7.4-1.6-11.1c-0.2-3.4-0.4-6.9-0.9-10.3c-1-7.9-4.6-14.6-10.5-20c-1.1-1-1-1.1-2.4-0.2
			c-0.1,0-0.1,0.1-0.2,0.1c-1.7,1-3.3,1.9-5,2.9c-0.4,0.2-0.4,0.3,0,0.6c0.3,0.2,0.6,0.5,1,0.7c4.2,2.8,7.6,6.4,10.2,10.7
			c2.2,3.7,3.5,7.7,4.4,11.9c0.8,3.8,1.5,7.6,2.4,11.4c1.1,5,3.1,9.6,6.3,13.6c1.9,2.5,4.1,4.7,6.8,6.2c0.7,0.4,1.4,0.6,2.2,0.8
			c0.6,0.1,1-0.3,0.8-0.9c-0.1-0.2-0.2-0.4-0.3-0.6c-0.7-0.8-1.3-1.6-2.1-2.2c-1.8-1.6-3.8-2.9-5.9-4.1c-1.3-0.7-2.4-1.7-2.9-3.2
			c-0.2-0.5-0.5-1-0.7-1.5c-0.2-0.4-0.3-0.7-0.5-1.1c0.4,0.1,0.8,0.3,1.1,0.4c4.1,2.1,8.1,4.3,11.6,7.3c1.7,1.4,3.3,2.9,4.4,4.8
			c0.4,0.6,0.6,1.3,0.6,2c0,0.7-0.4,1.3-1.1,1.4c-0.7,0.1-1.4,0.2-2.1,0.1c-2-0.2-3.8-1-5.5-2c-4.5-2.7-7.9-6.4-10.6-11
			c-2.1-3.7-3.5-7.6-4.6-11.7c-1-3.6-1.9-7.2-3.3-10.8c-3.3-8.6-9.1-15-17.3-19.3c-0.5-0.2-0.9-0.2-1.3,0c-1.2,0.7-2.3,1.4-3.5,2.1
			c-0.2,0.1-0.3,0.2-0.6,0.4c0.1,0.1,0.2,0.1,0.3,0.2c1,0.4,1.9,0.7,2.9,1.1c5.1,2.2,9.3,5.7,12.6,10.2c2.9,3.9,4.7,8.3,6.2,12.9
			c1.1,3.5,2.1,7,3.4,10.4c2.3,6.3,5.8,11.6,11.1,15.8c2.9,2.3,6.1,4.1,9.7,5.2c0.5,0.1,1,0.2,1.4-0.1c2.8-1.6,5.6-3.3,8.4-4.9
			c0.4-0.2,0.4-0.5,0.3-0.8c-0.5-0.9-0.9-1.8-1.4-2.6c-1.7-2.4-3.8-4.3-6.1-6.1c-4.5-3.5-9.5-6.1-14.6-8.6c-0.9-0.4-1.7-0.8-2.6-1.2
			c-0.5-0.2-0.7-0.1-0.6,0.4C56.6,55.9,56.7,56.2,56.7,56.5z M85,68c0-0.3,0-0.5,0-0.7c0-1.9,0-3.9,0-5.8c0-0.8-0.3-1.3-0.9-1.6
			c-2.1-1.2-4.1-2.5-6.1-3.6c-4.7-2.6-9.7-4.6-14.6-6.8c-1.9-0.8-3.9-1.7-5.8-2.5c-0.3-0.1-0.6-0.3-0.5-0.8c0.2-0.8,0.3-1.6,0.5-2.4
			c0.1-0.3,0.2-0.4,0.5-0.3c0.5,0.2,1,0.4,1.6,0.6c6,2.3,12,4.6,18,7c2.3,0.9,4.5,2.1,6.8,3.1c0.5,0.2,0.6,0.2,0.6-0.3
			c0-1.6,0-3.2,0-4.8c0-0.4-0.2-0.6-0.5-0.7c-0.7-0.3-1.4-0.6-2.2-0.8c-5.9-1.9-11.7-3.8-17.6-5.7c-1.8-0.6-3.6-1.1-5.4-1.7
			c-0.6-0.2-0.7-0.1-0.9,0.4c-0.1,0.2-0.1,0.4-0.2,0.5c0-0.2,0-0.4,0.1-0.6c1.1-3.6,2.2-7.2,3.3-10.8c0.9-3.1,1.6-6.3,1.8-9.6
			c0-0.6-0.1-1-0.7-1.3c-2.8-1.5-5.7-3.1-8.5-4.6c-0.2-0.1-0.4-0.2-0.6-0.2c0,0-0.1,0.1-0.1,0.1c0.1,0.3,0.2,0.6,0.4,0.9
			c2.2,4.1,3.3,8.5,3.5,13.1c0.2,4.3-0.4,8.6-0.8,12.8c-0.4,3.4-0.6,6.8-0.5,10.2c0,0.4,0.1,0.8,0.1,1.2c0.1,0,0.1,0,0.2,0
			c0-0.3,0.1-0.7,0.1-1c0-0.4,0.2-0.5,0.6-0.3c5.3,2.4,10.7,4.8,15.7,7.7c3.9,2.3,7.7,4.8,10.9,8C84.2,67.2,84.5,67.6,85,68z
			 M37.5,65.4c-0.5,0.9-0.9,1.7-1.3,2.4c-2.5,4.6-5.2,9-7.4,13.8c-0.3,0.7-0.3,0.7,0.3,1.1c1.6,0.9,3.2,1.9,4.7,2.8
			c0.2,0.1,0.5,0.2,0.7,0.3c0-0.2,0.1-0.5,0.1-0.7c0-2.9,0.2-5.9,1-8.7c1-3.6,2.1-7.2,3.1-10.8c0.9-2.9,1.8-5.8,2.2-8.8
			c0.1-0.8,0.1-0.8-0.6-1.1c-4.7-2-9.4-3.9-14.1-6c-5.6-2.5-10.9-5.5-15.8-9.1c-0.1-0.1-0.3-0.1-0.5-0.2c0,0.3-0.1,0.5-0.1,0.7
			c0,1.8,0,3.7,0,5.5c0,0.5,0.2,0.8,0.6,1.1c1.9,0.9,3.7,1.9,5.6,2.8c5.6,2.7,11.4,4.8,17.2,7c2,0.7,4,1.5,5.9,2.2
			c0.6,0.2,0.6,0.2,0.4,0.9c-0.2,0.6-0.4,1.1-0.6,1.7c-0.1,0.4-0.4,0.5-0.8,0.4c-1.3-0.4-2.6-0.9-3.9-1.3c-8-2.5-16-4.9-23.8-8
			C10.4,53,10.2,53,10,53c0,0.3,0,0.5,0,0.7c0,1.4,0,2.8,0,4.2c0,0.5,0.2,0.8,0.7,0.9c7.9,2,15.9,3.9,23.8,5.9
			C35.5,64.9,36.4,65.2,37.5,65.4z M64.4,32.4c0.2-0.3,0.4-0.5,0.6-0.7c2.1-2.4,4.2-4.8,6.3-7.2c0.4-0.4,0.4-0.5-0.1-0.8
			c-0.8-0.4-1.6-0.9-2.4-1.3c-0.4-0.2-0.6-0.1-0.8,0.3c-1.1,2.2-2.2,4.4-3.4,6.5c-1.6,3-3.2,5.9-4.8,8.9c-0.1,0.2-0.1,0.4-0.2,0.6
			c0.4-0.2,0.6-0.6,1-0.7c0.3-0.1,0.8,0.1,1.1,0.2c4.6,1.1,9.2,2.1,13.8,3.2c2.9,0.7,5.8,1.5,8.8,2.2c0.9,0.2,0.9,0.2,0.9-0.7
			c0-1.2,0-2.4,0-3.5c0-0.4-0.2-0.6-0.6-0.6c-2.1-0.3-4.2-0.7-6.3-1c-4.8-0.7-9.7-1.4-14.5-2.1c-0.5-0.1-1-0.2-1.6-0.3
			c0.3-0.4,0.6-0.8,0.8-1.1c0.2-0.3,0.5-0.4,0.9-0.4c4.5,0.2,8.9,0.4,13.4,0.6c2.5,0.1,4.9,0.3,7.4,0.4c0.4,0,0.6-0.1,0.6-0.5
			c0-0.8,0-1.7,0-2.5c0-0.2-0.2-0.5-0.4-0.6c-0.5-0.2-1-0.3-1.5-0.3c-2.3,0.1-4.7,0.3-7,0.4c-2.6,0.2-5.3,0.4-7.9,0.7
			C67,32.1,65.8,32.2,64.4,32.4z M79.9,28.7c0,0,0-0.1,0-0.1c-0.1-0.1-0.3-0.2-0.4-0.3c-0.5-0.3-1.1-0.6-1.6-0.9
			c-0.5-0.3-1.1-0.4-1.7-0.1c-2.2,0.8-4.3,1.7-6.5,2.5c-0.4,0.2-0.8,0.3-1.3,0.5c0,0,0-0.1-0.1-0.1c2.3-1.3,4.7-2.6,7-3.9
			c0-0.1,0-0.1,0-0.2c-0.4-0.2-0.8-0.5-1.2-0.7c-0.4-0.2-0.7-0.2-1.1,0.1c-2.4,1.9-4.7,3.8-7.1,5.8c-0.1,0.1-0.2,0.3-0.4,0.4
			c0,0.1,0.1,0.1,0.1,0.2C70.4,30.8,75.1,29.7,79.9,28.7z"/>
		<path fill="#010101" d="M40.9,47.7c0-0.3,0-0.5-0.1-0.7c-0.2-0.9-0.4-1.8-0.6-2.7c-0.1-0.6-0.4-0.9-0.9-1.2
			c-2.1-1.1-4.2-2.3-6.3-3.5c-2.9-1.7-5.7-3.6-8.1-6c-1.1-1.1-2.1-2.2-2.6-3.7c0-0.1-0.1-0.2-0.1-0.4c-0.5-1.6,0.2-2.7,1.9-2.9
			c1.4-0.2,2.7,0.2,4,0.7c3,1.1,5.5,2.9,7.8,5.1c4.2,3.9,7.1,8.6,8.9,14c1.2,3.5,2.1,7.1,3.2,10.7c1.2,4.1,2.7,8.1,5,11.8
			c3.4,5.3,7.9,9.4,13.5,12.3c0.6,0.3,1.2,0.6,1.8,0.9c-0.2,0.2-0.4,0.3-0.5,0.4c-1.5,0.9-3,1.8-4.5,2.6c-0.5,0.3-0.9,0.3-1.4,0
			c-8-5.2-13.2-12.4-15.4-21.8c-0.9-3.9-1.6-7.9-2.5-11.9c-1-4.8-2.7-9.4-5.5-13.5c-1.9-2.8-4.2-5.2-7-7.1c-0.8-0.5-1.6-0.9-2.6-1.1
			c-0.6-0.1-0.8,0.2-0.6,0.7c0.2,0.5,0.5,0.9,0.8,1.3c1.8,1.9,3.9,3.4,6.1,4.7c0.7,0.5,1.5,0.8,2.2,1.3c0.4,0.3,0.9,0.7,1.1,1.1
			c2.1,3.8,3.5,7.9,4,12.2c0.5,3.9,0.7,7.8,1,11.7c0.4,5.2,1.2,10.2,3.5,15c1.9,4,4.6,7.4,7.8,10.3c0.4,0.3,0.8,0.7,1.2,1.1
			c-1.2,0.6-2.2,1.5-3.6,1.4c-2.1-0.1-4.3,0-6.4,0c-0.7,0-1.1-0.2-1.4-0.8c-2.8-4.7-4.2-9.7-4.5-15.2c-0.1-2.8,0.1-5.6,0.4-8.4
			c0.4-4.4,1.1-8.7,1-13.2c0-0.6-0.2-0.9-0.7-1.1c-5.1-2.2-10.2-4.5-15-7.3c-4-2.3-7.8-4.7-11.2-7.9c-1.3-1.2-2.4-2.6-3.6-3.9
			c-0.4-0.4-0.3-0.5,0.2-0.8c1.5-0.9,3.1-1.8,4.6-2.7c0.3-0.2,0.5-0.3,0.7,0.1c1.2,2.6,3.1,4.7,5.2,6.5c3.9,3.4,8.2,6,12.7,8.3
			c1.9,1,3.9,1.9,5.8,2.9C40.4,47.5,40.6,47.6,40.9,47.7z"/>
		<path fill="#010101" d="M56.7,56.5c0-0.3-0.1-0.6-0.1-1c-0.1-0.5,0.1-0.7,0.6-0.4c0.9,0.4,1.7,0.8,2.6,1.2
			c5.1,2.5,10.1,5.2,14.6,8.6c2.3,1.8,4.4,3.7,6.1,6.1c0.6,0.8,0.9,1.7,1.4,2.6c0.2,0.4,0.1,0.6-0.3,0.8c-2.8,1.6-5.6,3.2-8.4,4.9
			c-0.5,0.3-0.9,0.2-1.4,0.1c-3.6-1.1-6.8-2.9-9.7-5.2c-5.3-4.2-8.9-9.5-11.1-15.8c-1.2-3.4-2.3-6.9-3.4-10.4
			c-1.5-4.6-3.3-9-6.2-12.9C38.2,30.7,34,27.2,28.8,25c-0.9-0.4-1.9-0.7-2.9-1.1c-0.1,0-0.2-0.1-0.3-0.2c0.2-0.1,0.4-0.3,0.6-0.4
			c1.2-0.7,2.4-1.4,3.5-2.1c0.5-0.3,0.9-0.3,1.3,0c8.2,4.2,14,10.6,17.3,19.3c1.3,3.5,2.3,7.1,3.3,10.8c1.1,4.1,2.5,8,4.6,11.7
			c2.6,4.5,6.1,8.3,10.6,11c1.7,1,3.5,1.8,5.5,2c0.7,0.1,1.4,0,2.1-0.1c0.7-0.1,1-0.7,1.1-1.4c0-0.7-0.2-1.4-0.6-2
			c-1.1-1.9-2.7-3.4-4.4-4.8c-3.6-2.9-7.6-5.2-11.6-7.3c-0.3-0.2-0.7-0.3-1.1-0.4c0.2,0.4,0.3,0.7,0.5,1.1c0.2,0.5,0.5,1,0.7,1.5
			c0.5,1.5,1.5,2.4,2.9,3.2c2.1,1.1,4.1,2.4,5.9,4.1c0.7,0.7,1.4,1.5,2.1,2.2c0.1,0.2,0.2,0.4,0.3,0.6c0.2,0.6-0.2,1.1-0.8,0.9
			c-0.7-0.2-1.5-0.4-2.2-0.8c-2.8-1.5-4.9-3.7-6.8-6.2c-3.2-4-5.1-8.7-6.3-13.6c-0.9-3.8-1.6-7.6-2.4-11.4
			c-0.9-4.2-2.2-8.2-4.4-11.9c-2.6-4.3-6-7.9-10.2-10.7c-0.3-0.2-0.6-0.4-1-0.7c-0.4-0.3-0.4-0.4,0-0.6c1.7-1,3.3-1.9,5-2.9
			c0.1,0,0.1-0.1,0.2-0.1c1.4-0.9,1.3-0.7,2.4,0.2c5.9,5.4,9.5,12,10.5,20c0.4,3.4,0.6,6.9,0.9,10.3c0.3,3.7,0.6,7.5,1.6,11.1
			C56.6,56.3,56.6,56.4,56.7,56.5C56.7,56.5,56.7,56.5,56.7,56.5z"/>
		<path fill="#010101" d="M85,68c-0.5-0.5-0.8-0.8-1.2-1.2c-3.3-3.2-7-5.7-10.9-8c-5.1-2.9-10.4-5.4-15.7-7.7
			c-0.4-0.2-0.6,0-0.6,0.3c0,0.3-0.1,0.7-0.1,1c-0.1,0-0.1,0-0.2,0c-0.1-0.4-0.1-0.8-0.1-1.2c-0.1-3.4,0.1-6.8,0.5-10.2
			c0.5-4.3,1-8.5,0.8-12.8c-0.2-4.6-1.3-9-3.5-13.1c-0.1-0.3-0.3-0.6-0.4-0.9c0,0,0.1-0.1,0.1-0.1c0.2,0.1,0.4,0.1,0.6,0.2
			c2.8,1.5,5.7,3.1,8.5,4.6c0.6,0.3,0.7,0.7,0.7,1.3c-0.2,3.3-0.9,6.5-1.8,9.6c-1,3.6-2.2,7.2-3.3,10.8c-0.1,0.2-0.1,0.4-0.1,0.6
			c0.1-0.2,0.2-0.4,0.2-0.5c0.2-0.5,0.4-0.6,0.9-0.4c1.8,0.6,3.6,1.1,5.4,1.7c5.9,1.9,11.7,3.8,17.6,5.7c0.7,0.2,1.4,0.5,2.2,0.8
			c0.3,0.1,0.5,0.3,0.5,0.7c0,1.6,0,3.2,0,4.8c0,0.4-0.1,0.5-0.6,0.3c-2.3-1-4.5-2.2-6.8-3.1c-6-2.4-12-4.7-18-7
			c-0.5-0.2-1-0.4-1.6-0.6c-0.3-0.1-0.5,0-0.5,0.3c-0.2,0.8-0.3,1.6-0.5,2.4c-0.1,0.5,0.2,0.6,0.5,0.8c1.9,0.8,3.9,1.6,5.8,2.5
			c4.9,2.1,9.9,4.1,14.6,6.8c2.1,1.2,4.1,2.4,6.1,3.6c0.6,0.4,0.9,0.9,0.9,1.6c-0.1,1.9,0,3.9,0,5.8C85.1,67.6,85,67.7,85,68z"/>
		<path fill="#010101" d="M37.5,65.4c-1-0.3-2-0.5-3-0.7c-7.9-2-15.9-3.9-23.8-5.9c-0.5-0.1-0.7-0.4-0.7-0.9c0-1.4,0-2.8,0-4.2
			c0-0.2,0-0.5,0-0.7c0.2,0.1,0.4,0.1,0.5,0.1c7.8,3.1,15.8,5.6,23.8,8c1.3,0.4,2.6,0.8,3.9,1.3c0.4,0.2,0.7,0,0.8-0.4
			c0.2-0.6,0.4-1.1,0.6-1.7c0.2-0.6,0.2-0.7-0.4-0.9c-2-0.7-4-1.4-5.9-2.2c-5.8-2.1-11.6-4.3-17.2-7c-1.9-0.9-3.7-1.8-5.6-2.8
			c-0.4-0.2-0.6-0.5-0.6-1.1c0-1.8,0-3.7,0-5.5c0-0.2,0-0.4,0.1-0.7c0.2,0.1,0.4,0.2,0.5,0.2c4.9,3.7,10.2,6.6,15.8,9.1
			c4.6,2.1,9.4,4,14.1,6c0.7,0.3,0.7,0.3,0.6,1.1c-0.4,3-1.4,5.9-2.2,8.8c-1.1,3.6-2.2,7.2-3.1,10.8c-0.7,2.8-1,5.8-1,8.7
			c0,0.2-0.1,0.5-0.1,0.7c-0.2-0.1-0.5-0.2-0.7-0.3c-1.6-0.9-3.2-1.9-4.7-2.8c-0.6-0.4-0.6-0.4-0.3-1.1c2.2-4.8,4.9-9.2,7.4-13.8
			C36.6,67.1,37,66.3,37.5,65.4z"/>
		<path fill="#010101" d="M64.4,32.4c1.4-0.1,2.6-0.3,3.8-0.4c2.6-0.2,5.3-0.5,7.9-0.7c2.3-0.2,4.7-0.3,7-0.4c0.5,0,1,0.1,1.5,0.3
			c0.2,0.1,0.4,0.4,0.4,0.6c0,0.8,0,1.7,0,2.5c0,0.4-0.2,0.6-0.6,0.5c-2.5-0.1-4.9-0.3-7.4-0.4c-4.5-0.2-8.9-0.4-13.4-0.6
			c-0.4,0-0.7,0.1-0.9,0.4c-0.2,0.4-0.5,0.7-0.8,1.1c0.6,0.1,1.1,0.2,1.6,0.3c4.8,0.7,9.7,1.4,14.5,2.1c2.1,0.3,4.2,0.7,6.3,1
			c0.4,0.1,0.6,0.2,0.6,0.6c0,1.2,0,2.4,0,3.5c0,0.9,0,0.9-0.9,0.7c-2.9-0.7-5.8-1.5-8.8-2.2c-4.6-1.1-9.2-2.2-13.8-3.2
			c-0.4-0.1-0.8-0.3-1.1-0.2c-0.3,0.1-0.6,0.5-1,0.7c0.1-0.2,0.1-0.4,0.2-0.6c1.6-3,3.2-5.9,4.8-8.9c1.2-2.2,2.3-4.3,3.4-6.5
			c0.2-0.4,0.4-0.5,0.8-0.3c0.8,0.5,1.6,0.9,2.4,1.3c0.5,0.3,0.5,0.4,0.1,0.8c-2.1,2.4-4.2,4.8-6.3,7.2
			C64.8,31.9,64.7,32.1,64.4,32.4z"/>
		<path fill="#010101" d="M31.8,71.6C31.8,71.6,31.8,71.5,31.8,71.6c-3,0.6-6.1,1.2-9.1,1.9c-2,0.4-4,0.9-6,1.3
			c-0.5,0.1-1,0-1.5-0.3c-1.2-0.7-2.4-1.4-3.5-2.1c-0.2-0.1-0.3-0.2-0.4-0.4c0.8-0.1,1.6-0.1,2.4-0.2c5.3-0.4,10.6-0.7,15.9-1.1
			c1-0.1,2-0.2,2.9-0.3c0.7-0.1,1.1-0.5,1.6-1.1c-1,0-1.8-0.1-2.7-0.1c-4.9-0.2-9.7-0.4-14.6-0.6c-2.1-0.1-4.2-0.3-6.3-0.4
			c-0.4,0-0.5-0.2-0.5-0.5c0-1.3,0-2.5,0-3.8c0-0.4,0.2-0.5,0.6-0.4c2.7,0.5,5.5,0.9,8.2,1.4c3.9,0.6,7.8,1.2,11.7,1.7
			c1.7,0.2,3.3,0.5,5,0.7c0.2,0,0.4,0.1,0.4,0.2c0,0.2-0.1,0.4-0.2,0.6c-2.1,2.5-4.1,5-6.2,7.5c-1.2,1.5-2.5,2.9-3.7,4.4
			c-0.5,0.6-0.5,0.6-1.2,0.2c-0.5-0.3-0.9-0.5-1.4-0.8c-0.5-0.3-0.5-0.4-0.1-0.7c1.8-1.4,3.6-2.8,5.4-4.3
			C29.1,73.7,31.5,71.9,31.8,71.6z"/>
		<path fill="#010101" d="M79.9,28.7c-4.7,1-9.5,2.1-14.2,3.1c0-0.1-0.1-0.1-0.1-0.2c0.1-0.2,0.2-0.3,0.4-0.4
			c2.4-1.9,4.7-3.8,7.1-5.8c0.3-0.3,0.7-0.3,1.1-0.1c0.4,0.3,0.8,0.5,1.2,0.7c0,0.1,0,0.1,0,0.2c-2.3,1.3-4.7,2.6-7,3.9
			c0,0,0,0.1,0.1,0.1c0.4-0.2,0.8-0.3,1.3-0.5c2.2-0.8,4.3-1.6,6.5-2.5c0.6-0.2,1.1-0.2,1.7,0.1c0.5,0.3,1.1,0.6,1.6,0.9
			c0.1,0.1,0.3,0.2,0.4,0.3C79.9,28.6,79.9,28.7,79.9,28.7z"/>
		<path d="M30.4,72.3c0.2,0.1-0.5,0.5-0.6,0.6c-1.6,0.9-2.6,1.6-4.2,2.4c-1.4,0.8-2.8,1.5-4.2,2.3c-0.4,0.2-0.7,0.2-1.1,0
			c-0.4-0.3-0.8-0.5-1.2-0.7c-0.1-0.1-0.3-0.2-0.5-0.4c4.1-1.5,6.2-2.3,10.3-3.8C29.4,72.5,30.3,72.2,30.4,72.3z"/>
	</g>
</g>
<g id="Layer_1_1_">
	<path fill="#010101" d="M3,48.7L3,75l43.7,25.3l43.8-25.2l0-46.4L46.8,3.5L3,28.7l0,20.5l9.2,0l0-15.7l34.6-19.9l34.6,20l0,36.7
		L46.7,90.2l-34.6-20l0-21.5L3,48.7z"/>
</g>
</svg>
